<?xml version="1.0" encoding="UTF-8" standalone="no"?>
<!DOCTYPE svg PUBLIC "-//W3C//DTD SVG 1.1//EN" "http://www.w3.org/Graphics/SVG/1.1/DTD/svg11.dtd">
<svg width="100%" height="100%" viewBox="0 0 3106 1142" version="1.1" xmlns="http://www.w3.org/2000/svg" xmlns:xlink="http://www.w3.org/1999/xlink" xml:space="preserve" xmlns:serif="http://www.serif.com/" style="fill-rule:evenodd;clip-rule:evenodd;stroke-linejoin:round;stroke-miterlimit:2;">
    <g transform="matrix(1,0,0,1,-1.3979,-0.287479)">
        <g transform="matrix(4.16667,0,0,4.16667,1.3979,-0.287523)">
            <path d="M252.53,181.421L252.53,53.18C252.53,50.291 252.486,0.141 252.486,0.141L288.075,0.141C292.341,0.141 294.711,4.184 294.711,11.117L294.711,85.529C305.848,72.531 321.251,63.289 339.971,63.289C357.034,63.289 372.2,71.665 372.2,100.548L372.2,181.421C372.2,184.599 372.275,217.815 372.275,217.815L330.005,217.815L330.018,188.644L330.018,119.323C330.018,105.747 325.516,102.281 314.142,102.281C307.743,102.281 300.872,104.014 294.711,106.036L294.711,188.644L294.707,217.815L252.486,217.815C252.486,217.815 252.53,184.31 252.53,181.421Z" style="fill:rgb(0,137,207);fill-rule:nonzero;"/>
            <path d="M379.782,183.154L379.782,104.014C379.782,100.838 379.727,65.888 379.727,65.888L422.199,65.888L422.199,165.247C422.199,179.688 428.123,183.443 438.786,183.443C444.474,183.443 451.347,181.134 457.27,178.822L457.27,96.794L457.343,65.888L499.688,65.888L499.688,181.134C499.688,184.022 499.755,217.815 499.755,217.815L465.802,217.815C461.535,217.815 458.93,213.771 457.744,198.174C446.607,211.461 433.1,220.125 413.194,220.125C396.133,220.125 379.782,211.75 379.782,183.154Z" style="fill:rgb(0,137,207);fill-rule:nonzero;"/>
            <path d="M578.581,114.415C578.581,97.867 572.035,90.773 562.336,90.773C552.395,90.773 545.848,97.867 545.848,114.415C545.848,130.965 552.395,138.647 562.336,138.647C572.035,138.647 578.581,130.965 578.581,114.415ZM588.521,228.784C588.521,221.987 585.128,218.441 574.458,218.441L533.969,218.441C533.242,221.396 533.242,224.056 533.242,227.011C533.242,239.128 538.817,244.743 557.245,244.743C576.642,244.743 588.521,238.833 588.521,228.784ZM497.841,238.241C497.841,220.51 509.722,210.757 520.633,205.734C514.328,201.596 509.722,193.616 509.722,183.273C509.722,169.974 516.268,160.223 524.997,153.425C513.602,145.151 507.298,131.852 507.298,114.415C507.298,82.795 528.392,63.289 562.093,63.289C569.125,63.289 575.915,64.175 581.976,65.948L626.831,65.948L626.831,97.57L620.526,97.57C618.345,97.57 615.677,99.934 615.193,102.298C616.163,105.844 616.647,110.277 616.647,114.415C616.647,145.741 595.796,164.065 562.093,164.065C553.366,164.065 545.607,162.882 538.817,160.517C538.576,162.292 538.333,165.541 538.333,167.018C538.333,173.521 541,176.771 547.789,176.771L587.067,176.771C614.465,176.771 627.074,188.888 627.074,216.372C627.074,250.357 607.191,274 556.275,274C513.359,274 497.841,259.814 497.841,238.241Z" style="fill:rgb(0,137,207);fill-rule:nonzero;"/>
            <path d="M704.808,125.677C703.622,102.281 698.172,93.328 686.324,93.328C674.001,93.328 666.656,102.571 664.523,125.677L704.808,125.677ZM621.395,142.718C621.395,93.905 646.75,63.289 686.324,63.289C725.661,63.289 745.329,86.974 745.329,139.252C745.329,145.317 744.855,150.517 744.855,152.25L664.048,152.25C665.708,177.666 674.476,188.931 691.775,188.931C705.992,188.931 711.916,182.866 717.604,174.201L740.589,174.201L740.589,205.684C729.925,213.483 714.997,220.125 687.746,220.125C642.248,220.125 621.395,190.376 621.395,142.718Z" style="fill:rgb(0,137,207);fill-rule:nonzero;"/>
            <path d="M122.57,116.745L91.623,116.745C91.623,116.745 87.596,116.745 87.596,120.771L87.596,173.576C87.596,173.576 87.596,177.603 90.444,180.45L128.901,218.9C128.901,218.9 131.747,221.752 131.687,217.722L130.759,157.598C130.759,157.598 130.698,153.57 134.724,153.57L226.725,153.57C226.725,153.57 230.752,153.57 227.902,150.728L196.777,119.593C196.777,119.593 193.928,116.745 189.901,116.745L122.668,116.745" style="fill:rgb(0,137,207);fill-rule:nonzero;"/>
            <path d="M176.936,38.509L141.412,2.985C141.412,2.985 138.561,0.138 134.536,0.138L82.984,0.138C82.984,0.138 78.958,0.138 78.958,4.167L78.958,62.656C78.958,62.656 78.958,66.681 76.112,63.835L47.798,35.515C47.798,35.515 44.954,32.669 42.105,35.515L2.846,74.77C2.846,74.77 0,77.618 0,81.642L0,132.678C0,132.678 0,136.703 2.933,139.464L46.231,180.129C46.231,180.129 49.167,182.893 49.167,178.862L49.167,122.362C49.167,122.362 49.167,118.338 52.013,115.487L83.827,83.68C83.827,83.68 86.673,80.831 89.52,83.68L122.57,116.745L122.665,44.098C122.994,42.941 123.892,41.415 126.301,41.357L175.757,41.357C175.757,41.357 179.784,41.357 176.936,38.509Z" style="fill:rgb(0,137,207);fill-rule:nonzero;"/>
        </g>
    </g>
</svg>
