<?xml version="1.0" encoding="UTF-8" standalone="no"?>
<!DOCTYPE svg PUBLIC "-//W3C//DTD SVG 1.1//EN" "http://www.w3.org/Graphics/SVG/1.1/DTD/svg11.dtd">
<svg width="100%" height="100%" viewBox="0 0 477 122" version="1.1" xmlns="http://www.w3.org/2000/svg" xmlns:xlink="http://www.w3.org/1999/xlink" xml:space="preserve" xmlns:serif="http://www.serif.com/" style="fill-rule:evenodd;clip-rule:evenodd;stroke-linejoin:round;stroke-miterlimit:2;">
    <g transform="matrix(1,0,0,1,3.17872e-05,-7.66)">
        <g>
            <g>
                <g id="Oval">
                    <path id="Svart_platta" d="M72.46,113.33C60.41,110.47 47.47,106.78 35.9,102.12C24.32,97.45 14.09,91.89 7.38,84.81C2.92,80.12 -0.01,74.49 0,68.18C-0.01,62.57 2.34,57.34 6.26,52.81C10.19,48.26 15.68,44.25 22.48,40.57C36.06,33.23 54.94,27.23 77.32,22.36C122.06,12.66 180.8,7.66 237.8,7.66C300.61,7.66 359.35,13.24 403.44,23.45C415.54,26.26 428.54,29.88 440.17,34.47C451.8,39.08 462.09,44.57 468.84,51.61C473.32,56.28 476.28,61.88 476.27,68.19C476.28,74.5 473.33,80.13 468.85,84.82C464.36,89.55 458.28,93.57 451.3,97.13C437.33,104.24 419.62,109.51 403.47,113.34C359.14,123.83 300.39,129.56 237.8,129.57C175.25,129.56 116.62,123.83 72.46,113.33Z" style="fill-rule:nonzero;"/>
                    <path id="Vit_linje" d="M468.57,68.18C468.57,97.79 365.05,121.88 237.79,121.88C110.91,121.88 7.67,97.79 7.67,68.18C7.67,39.05 110.9,15.34 237.79,15.34C365.05,15.34 468.57,39.05 468.57,68.18M237.79,12.65C175.35,12.65 117.05,18.21 73.61,28.31C29.35,38.6 4.99,52.76 4.99,68.18C4.99,99.8 107.25,124.58 237.79,124.58C368.71,124.58 471.26,99.8 471.26,68.18C471.26,52.77 446.77,38.61 402.3,28.31C358.69,18.21 300.27,12.65 237.79,12.65Z" style="fill:white;fill-rule:nonzero;"/>
                </g>
                <g id="Logotext">
                    <g>
                        <path d="M123.61,70.06L122.3,69.87C113.34,68.6 106.14,68.01 99.59,68.01C92.83,68.01 88.46,68.69 88.46,69.72C88.46,70.62 92.28,71.4 100.58,72.25L106.48,72.87C120.78,74.33 127,76.37 127,79.58C127,83.36 115.32,85.87 97.85,85.87C91.52,85.87 85.73,85.54 78.2,84.73C73.84,84.23 73.51,84.2 71.54,83.82L71.54,79.23C77,80.2 79.84,80.67 83.55,81.08C88.25,81.64 92.72,81.89 97.3,81.89C104.62,81.89 108.54,81.23 108.54,79.95C108.54,78.88 106.03,78.3 98.5,77.55L94.46,77.15C88.67,76.55 85.62,76.18 82.12,75.62C79.28,75.18 76.99,74.65 75.13,74.06C72.07,73.06 70.22,71.6 70.22,70.1C70.22,66.45 81.36,64.05 98.39,64.05C106.68,64.05 114.11,64.51 123.6,65.7L123.6,70.06" style="fill:white;fill-rule:nonzero;"/>
                        <path d="M152.98,68.26L159.53,68.26C169.36,68.26 173.07,68.91 173.07,70.66C173.07,72.53 169.47,73.15 159.1,73.15L152.98,73.15L152.98,68.26M134.2,64.32L134.2,85.6L152.98,85.6L152.98,77.06L164.01,77.06C173.51,77.06 176.89,76.87 181.58,76.06C188.24,74.94 192.28,72.88 192.28,70.63C192.28,68.38 187.91,66.27 180.92,65.2C176.55,64.51 172.63,64.32 164.66,64.32L134.2,64.32Z" style="fill:white;fill-rule:nonzero;"/>
                        <path d="M300.92,68.19L310.31,68.19C317.19,68.19 320.68,69 320.68,70.62C320.68,71.99 317.3,72.96 312.39,72.99L310.1,73.02L308.68,73.05L300.93,73.05L300.93,68.19M282.14,64.32L282.14,85.6L300.92,85.6L300.92,76.92L303.64,76.92C306.92,76.92 307.35,76.92 309,77.05C312.49,77.33 316.09,78.52 318.93,80.35L321.77,82.17L323.95,83.54L325.36,84.51L326.78,85.39L327.22,85.61L347.64,85.61L347.09,85.26L345.13,84.07L342.83,82.64L340.87,81.45L337.92,79.65C334.43,77.44 331.15,76.22 327.22,75.66C330.5,75.22 331.7,75.01 333.67,74.54C337.71,73.51 340,72.01 340,70.45C340,68.46 336.18,66.49 330.28,65.4C325.48,64.55 321.55,64.33 310.74,64.33L282.14,64.33L282.14,64.32Z" style="fill:white;fill-rule:nonzero;"/>
                        <path d="M417.83,68.31L390.98,68.31L390.98,85.6L372.09,85.6L372.09,68.31L345.13,68.31L345.13,64.32L417.83,64.32L417.83,68.31" style="fill:white;fill-rule:nonzero;"/>
                        <path d="M211.14,82.13C211.14,78.18 220.01,73.69 233.75,70.63C243.42,68.47 250.7,68.06 254.22,69.34C253.39,65.94 244.66,65.62 231.48,68.57C217.74,71.63 208.88,76.12 208.88,80.07C208.88,81.21 209.72,82.06 211.22,82.6C211.18,82.44 211.14,82.3 211.14,82.13" style="fill:white;fill-rule:nonzero;"/>
                        <path d="M272.61,64.46C272.79,64.84 272.89,65.24 272.89,65.67C272.89,71.78 254.82,80.48 231.27,85.74C213.37,89.74 198.54,90.2 192.82,87.37C195.09,92.31 212.12,92.59 233.55,87.8C257.11,82.54 275.17,73.84 275.16,67.72C275.16,66.36 274.26,65.28 272.61,64.46" style="fill:white;fill-rule:nonzero;"/>
                        <path d="M231.27,85.74C254.82,80.48 272.89,71.78 272.89,65.67C272.89,65.24 272.79,64.83 272.61,64.46C270.3,59.49 253.18,59.24 231.58,64.06C208.23,69.27 190.28,78.02 190.28,84.13C190.28,85.48 191.18,86.56 192.82,87.37C198.54,90.2 213.37,89.74 231.27,85.74M208.87,80.07C208.87,76.12 217.74,71.63 231.47,68.57C244.66,65.62 253.39,65.93 254.21,69.34C254.26,69.54 254.29,69.73 254.28,69.95C254.28,73.66 244.78,78.47 231.68,81.39C222.11,83.53 214.75,83.89 211.2,82.6C209.71,82.06 208.87,81.21 208.87,80.07Z" style="fill:rgb(221,5,43);fill-rule:nonzero;"/>
                    </g>
                    <g>
                        <path d="M71.21,45.33L79.82,45.33L79.82,54.52L89.47,54.52L89.47,57.61L71.21,57.61L71.21,45.33" style="fill:white;fill-rule:nonzero;"/>
                        <path d="M101.93,53.39L105.72,48.53L109.64,53.39L101.93,53.39M98.94,42.46C98.94,43.16 100.1,43.74 101.5,43.74C102.9,43.74 104.05,43.16 104.05,42.46C104.05,41.76 102.9,41.18 101.5,41.18C100.1,41.18 98.94,41.76 98.94,42.46ZM107.81,42.46C107.81,43.16 108.92,43.74 110.33,43.74C111.74,43.74 112.89,43.16 112.89,42.46C112.89,41.76 111.74,41.18 110.33,41.18C108.92,41.18 107.81,41.76 107.81,42.46ZM90.19,57.61L98.62,57.61L100.24,55.61L111.44,55.61L113.06,57.61L121.6,57.61L110.26,45.33L101.25,45.33L90.19,57.61Z" style="fill:white;fill-rule:nonzero;"/>
                        <path d="M198.18,53.39L201.95,48.53L205.88,53.39L198.18,53.39M186.44,57.61L194.87,57.61L196.49,55.61L207.69,55.61L209.31,57.61L217.85,57.61L206.5,45.33L197.49,45.33L186.44,57.61Z" style="fill:white;fill-rule:nonzero;"/>
                        <path d="M156.15,45.34L163.53,45.34L175.46,51.55L175.46,45.33L184.21,45.34L184.21,57.62L176.78,57.62L164.9,51.55L164.9,57.62L156.15,57.62L156.15,45.34" style="fill:white;fill-rule:nonzero;"/>
                        <path d="M123.64,45.34L131.02,45.34L142.95,51.55L142.95,45.33L151.7,45.34L151.7,57.62L144.27,57.62L132.39,51.55L132.39,57.62L123.64,57.62L123.64,45.34" style="fill:white;fill-rule:nonzero;"/>
                    </g>
                </g>
            </g>
        </g>
    </g>
</svg>
