<svg xmlns="http://www.w3.org/2000/svg" xmlns:xlink="http://www.w3.org/1999/xlink" width="200" height="93.05" viewBox="0 0 200 93.05"><path d="M16.754 18.042c0-2.021-.713-3.696-2.065-4.837-1.079-.935-2.233-1.381-4.407-1.706l-2.556-.393c-1.239-.201-2.365-.657-3.014-1.217-.632-.545-.952-1.379-.952-2.478 0-2.498 1.779-4.052 4.642-4.052 2.228 0 3.751.56 5.259 1.929l.197.18 2.006-2.005-.22-.198c-2.073-1.869-4.143-2.632-7.144-2.632-4.716 0-7.761 2.699-7.761 6.876 0 1.934.628 3.473 1.866 4.576 1.052.915 2.544 1.534 4.442 1.837l2.723.427c1.703.262 2.218.448 2.912 1.05.667.58 1.02 1.517 1.02 2.708 0 2.538-1.956 4.052-5.233 4.052-2.69 0-4.362-.671-6.168-2.477l-.198-.198-2.103 2.102.197.198c2.249 2.249 4.626 3.166 8.205 3.166 5.074.001 8.352-2.71 8.352-6.908zm12.391 6.712l7.862-23.924h-3.217l-5.865 18.265-5.867-18.265h-3.217l7.863 23.924zm26.555-2.792h-12.01v-7.872h10.239v-2.792h-10.239v-7.676h12.01v-2.792h-15.063v23.924h15.063zm8.331-15.294l11.975 18.086h2.793v-23.924h-3.054v18.025l-11.974-18.025h-2.792v23.924h3.052zm27.315 15.491c-2.69 0-4.361-.671-6.167-2.477l-.198-.198-2.103 2.102.197.198c2.25 2.249 4.627 3.166 8.206 3.166 5.073 0 8.352-2.711 8.352-6.909 0-2.021-.714-3.696-2.066-4.837-1.079-.935-2.233-1.381-4.407-1.706l-2.557-.393c-1.237-.201-2.362-.657-3.011-1.217-.634-.545-.954-1.379-.954-2.479 0-2.498 1.78-4.052 4.643-4.052 2.226 0 3.751.56 5.258 1.929l.197.18 2.005-2.005-.219-.198c-2.074-1.869-4.144-2.632-7.144-2.632-4.715 0-7.762 2.699-7.762 6.876 0 1.934.627 3.473 1.867 4.576 1.051.915 2.544 1.534 4.439 1.838l2.724.427c1.703.262 2.22.448 2.913 1.05.666.58 1.02 1.517 1.02 2.708.001 2.54-1.955 4.053-5.233 4.053zm16.651-4.113l4.601-5.52 7.001 12.228h3.604l-8.549-14.593 7.599-9.331h-3.774l-10.482 12.912v-12.912h-3.052v23.924h3.052zm-92.129 19.625v-2.792h-15.064v23.925h3.055v-10.304h10.237v-2.792h-10.237v-8.037zm14.483 15.85l1.869 5.283h3.257l-8.77-23.924h-2.49l-8.804 23.924h3.257l1.871-5.283h9.81zm-.919-2.726h-7.936l3.997-11.217 3.939 11.217zm24.101 1.297c0-2.022-.715-3.695-2.065-4.837-1.08-.935-2.232-1.381-4.407-1.707l-2.558-.392c-1.236-.202-2.362-.657-3.012-1.216-.633-.545-.953-1.379-.953-2.479 0-2.498 1.779-4.052 4.64-4.052 2.23 0 3.752.561 5.26 1.93l.199.179 2.006-2.005-.22-.197c-2.075-1.869-4.144-2.632-7.145-2.632-4.715 0-7.761 2.699-7.761 6.876 0 1.934.629 3.473 1.869 4.575 1.049.916 2.544 1.535 4.439 1.837l2.725.428c1.7.262 2.218.448 2.909 1.05.669.581 1.02 1.517 1.02 2.709 0 2.537-1.956 4.051-5.233 4.051-2.69 0-4.362-.671-6.168-2.476l-.198-.198-2.101 2.101.197.198c2.249 2.248 4.625 3.165 8.203 3.165 5.076 0 8.354-2.711 8.354-6.908zm11.417 6.712v-21.133h6.76v-2.792h-16.572v2.792h6.759v21.133zm9.906-23.925h3.054v23.924h-3.054zm23.584 21.343c1.456-1.556 2.077-3.419 2.077-6.231v-3.988h-8.797v2.759h5.743v1.491c0 1.787-.373 2.999-1.249 4.056-.995 1.206-2.532 1.899-4.214 1.899-1.48 0-2.877-.567-3.837-1.556-1.377-1.407-1.56-2.845-1.56-7.811 0-4.938.183-6.369 1.562-7.778.978-1.011 2.377-1.589 3.834-1.589 2.752 0 4.772 1.697 5.403 4.54l.049.219h3.05l-.056-.327c-.736-4.388-4.052-7.223-8.447-7.223-2.395 0-4.529.868-6.171 2.511-2.28 2.281-2.28 4.589-2.28 9.647 0 5.06 0 7.37 2.28 9.649 1.619 1.62 3.811 2.51 6.171 2.51 2.496 0 4.783-.988 6.442-2.778zm21.237 2.582h3.053v-23.925h-3.053v10.469h-10.532v-10.469h-3.055v23.925h3.055v-10.665h10.532zm24.15-2.792h-12.01v-7.873h10.238v-2.791h-10.238v-7.677h12.01v-2.792h-15.064v23.925h15.064zm18.964-21.133h-16.573v2.792h6.758v21.133h3.054v-21.133h6.761zm16.373 12.375c-1.079-.935-2.232-1.381-4.408-1.707l-2.556-.392c-1.238-.202-2.364-.657-3.013-1.216-.631-.545-.953-1.379-.953-2.479 0-2.498 1.778-4.052 4.642-4.052 2.227 0 3.751.561 5.258 1.93l.198.179 2.005-2.005-.219-.197c-2.073-1.869-4.143-2.632-7.144-2.632-4.715 0-7.762 2.699-7.762 6.876 0 1.934.628 3.473 1.868 4.575 1.052.916 2.544 1.535 4.439 1.837l2.725.428c1.702.262 2.217.448 2.91 1.05.667.581 1.02 1.517 1.02 2.709 0 2.537-1.956 4.051-5.232 4.051-2.692 0-4.363-.671-6.168-2.476l-.199-.198-2.102 2.101.198.198c2.249 2.249 4.626 3.166 8.205 3.166 5.074 0 8.352-2.711 8.352-6.908.001-2.022-.713-3.696-2.064-4.838zm-178.36 45.599h3.055v-10.304h10.237v-2.791h-10.237v-8.038h12.009v-2.791h-15.064zm27.249-24.121c-2.392 0-4.526.868-6.168 2.511-2.281 2.281-2.281 4.59-2.281 9.648 0 5.059 0 7.369 2.281 9.649 1.643 1.643 3.776 2.51 6.168 2.51 2.396 0 4.53-.868 6.171-2.51 2.281-2.279 2.281-4.59 2.281-9.649 0-5.058 0-7.366-2.281-9.649-1.641-1.642-3.775-2.51-6.171-2.51zm0 21.526c-1.458 0-2.857-.579-3.835-1.588-1.377-1.408-1.56-2.839-1.56-7.779 0-4.938.184-6.368 1.562-7.778.978-1.011 2.375-1.59 3.833-1.59 1.46 0 2.857.58 3.838 1.592 1.376 1.408 1.56 2.839 1.56 7.777 0 4.94-.184 6.372-1.563 7.78-.976 1.008-2.373 1.586-3.835 1.586zm30.107-14.552c0-4.053-2.894-6.777-7.203-6.777h-9.238v23.923h3.053v-10.369h5.161l5.315 10.369h3.555l-5.593-10.685c3.107-.786 4.95-3.177 4.95-6.461zm-13.388-3.986h5.956c2.742 0 4.379 1.504 4.379 4.02 0 2.533-1.597 3.985-4.379 3.985h-5.956v-8.005zm28.89 13.383l-7.431-16.174h-2.953v23.924h3.055v-16.758l6.039 13.083h2.49l5.939-13.063v16.738h3.054v-23.924h-2.955zm16.226 7.75h15.064v-2.791h-12.011v-7.873h10.239v-2.792h-10.239v-7.677h12.011v-2.791h-15.064zm37.275-12.225v-.476c.006-3.085.013-6.583-2.379-8.976-1.471-1.47-3.582-2.247-6.104-2.247h-8.288v23.923h8.288c2.523 0 4.635-.777 6.104-2.247 2.393-2.393 2.386-6.333 2.379-9.501v-.476zm-3.053.324c.002 2.794.003 5.961-1.462 7.488-1.063 1.092-2.501 1.622-4.394 1.622h-4.806v-18.342h4.806c1.893 0 3.331.531 4.392 1.621 1.468 1.53 1.466 4.292 1.464 6.964v.647zm11.417-12.023h-3.053v23.924h14.999v-2.791h-11.946zm14.96 0h3.053v23.923h-3.053zm23.855 18.025l-11.975-18.025h-2.792v23.924h3.053v-18.086l11.974 18.086h2.794v-23.924h-3.054zm16.862-6.9v2.758h5.742v1.492c0 1.787-.372 2.999-1.247 4.056-.995 1.208-2.533 1.899-4.215 1.899-1.479 0-2.878-.567-3.836-1.556-1.377-1.408-1.56-2.845-1.56-7.811 0-4.938.183-6.368 1.561-7.778.979-1.011 2.376-1.59 3.835-1.59 2.753 0 4.772 1.698 5.403 4.54l.05.219h3.05l-.058-.327c-.735-4.388-4.051-7.224-8.445-7.224-2.394 0-4.529.868-6.17 2.511-2.28 2.281-2.28 4.59-2.28 9.648 0 5.059 0 7.369 2.28 9.649 1.618 1.619 3.811 2.51 6.17 2.51 2.493 0 4.777-.988 6.438-2.779 1.456-1.555 2.077-3.418 2.077-6.23v-3.987h-8.795z"/><path fill="#fff" d="M154.302 23.646c0 .937-.773 1.696-1.728 1.696h-23.018c-.957 0-1.729-.759-1.729-1.696v-21.95c0-.937.773-1.696 1.729-1.696h23.018c.956 0 1.728.759 1.728 1.696v21.95z"/><defs><path id="a" d="M137.18.808h7.751v23.728h-7.751z"/></defs><linearGradient id="b" gradientUnits="userSpaceOnUse" x1="141.056" y1="24.537" x2="141.056" y2=".808"><stop offset="0" stop-color="#FFC20E"/><stop offset=".426" stop-color="#FFC40D"/><stop offset=".683" stop-color="#FFC908"/><stop offset=".893" stop-color="#FFD300"/><stop offset="1" stop-color="#FFDA00"/></linearGradient><use xlink:href="#a" overflow="visible" fill="url(#b)"/><clipPath id="c"><use xlink:href="#a" overflow="visible"/></clipPath><linearGradient id="d" gradientUnits="userSpaceOnUse" x1="141.056" y1="24.537" x2="141.056" y2=".808"><stop offset="0" stop-color="#FFC20E"/><stop offset=".426" stop-color="#FFC40D"/><stop offset=".683" stop-color="#FFC908"/><stop offset=".893" stop-color="#FFD300"/><stop offset="1" stop-color="#FFDA00"/></linearGradient><path clip-path="url(#c)" fill="url(#d)" d="M143.416.808h-6.236v23.729h7.751v-23.729z"/><defs><path id="e" d="M130.015.808c-.689 0-1.251.603-1.251 1.346v21.035c0 .745.561 1.348 1.251 1.348h6.227v-23.729h-6.227z"/></defs><linearGradient id="f" gradientUnits="userSpaceOnUse" x1="132.503" y1="24.537" x2="132.503" y2=".808"><stop offset="0" stop-color="#034694"/><stop offset=".393" stop-color="#004896"/><stop offset=".63" stop-color="#004D9A"/><stop offset=".824" stop-color="#0056A3"/><stop offset=".995" stop-color="#0063B1"/><stop offset="1" stop-color="#0064B1"/></linearGradient><use xlink:href="#e" overflow="visible" fill="url(#f)"/><clipPath id="g"><use xlink:href="#e" overflow="visible"/></clipPath><linearGradient id="h" gradientUnits="userSpaceOnUse" x1="132.499" y1="24.537" x2="132.499" y2=".808"><stop offset="0" stop-color="#034694"/><stop offset=".393" stop-color="#004896"/><stop offset=".63" stop-color="#004D9A"/><stop offset=".824" stop-color="#0056A3"/><stop offset=".995" stop-color="#0063B1"/><stop offset="1" stop-color="#0064B1"/></linearGradient><path clip-path="url(#g)" fill="url(#h)" d="M128.757.808v23.729h7.484v-23.729z"/><defs><path id="i" d="M152.11.808h-6.228v23.728h6.228c.691 0 1.257-.603 1.257-1.348v-21.034c0-.742-.566-1.346-1.257-1.346z"/></defs><linearGradient id="j" gradientUnits="userSpaceOnUse" x1="149.625" y1="24.537" x2="149.625" y2=".808"><stop offset="0" stop-color="#034694"/><stop offset=".393" stop-color="#004896"/><stop offset=".63" stop-color="#004D9A"/><stop offset=".824" stop-color="#0056A3"/><stop offset=".995" stop-color="#0063B1"/><stop offset="1" stop-color="#0064B1"/></linearGradient><use xlink:href="#i" overflow="visible" fill="url(#j)"/><clipPath id="k"><use xlink:href="#i" overflow="visible"/></clipPath><linearGradient id="l" gradientUnits="userSpaceOnUse" x1="149.625" y1="24.537" x2="149.625" y2=".808"><stop offset="0" stop-color="#034694"/><stop offset=".393" stop-color="#004896"/><stop offset=".63" stop-color="#004D9A"/><stop offset=".824" stop-color="#0056A3"/><stop offset=".995" stop-color="#0063B1"/><stop offset="1" stop-color="#0064B1"/></linearGradient><path clip-path="url(#k)" fill="url(#l)" d="M152.34.808h-6.458v23.729h7.485v-23.729z"/><path d="M31.551 63.422c-.975 0-1.768.805-1.768 1.796 0 .971.794 1.761 1.768 1.761.965 0 1.75-.79 1.75-1.761 0-.991-.785-1.796-1.75-1.796zm-7.032 0c-.969 0-1.756.805-1.756 1.796 0 .971.787 1.761 1.756 1.761.971 0 1.762-.79 1.762-1.761 0-.991-.791-1.796-1.762-1.796z"/></svg>