<?xml version="1.0" encoding="UTF-8" standalone="no"?>
<!DOCTYPE svg PUBLIC "-//W3C//DTD SVG 1.1//EN" "http://www.w3.org/Graphics/SVG/1.1/DTD/svg11.dtd">
<svg width="100%" height="100%" viewBox="0 0 464 62" version="1.1" xmlns="http://www.w3.org/2000/svg" xmlns:xlink="http://www.w3.org/1999/xlink" xml:space="preserve" xmlns:serif="http://www.serif.com/" style="fill-rule:evenodd;clip-rule:evenodd;stroke-linejoin:round;stroke-miterlimit:2;">
    <g transform="matrix(1,0,0,1,-1,-1)">
        <path d="M275.761,19.076L267.34,42.54L259.126,19.076L251.66,19.076L263.774,50.613C263.046,52.43 262.189,54.285 260.992,55.479C259.901,56.565 258.438,57.201 256.462,57.201C253.976,57.201 252.251,56.367 251.801,56.177L249.763,61.278C250.59,61.665 253.087,63 256.533,63C260.938,63 263.887,61.407 265.42,59.88C267.766,57.535 269.016,55.242 271.221,49.168L282.742,19.075L275.761,19.075L275.761,19.076Z" style="fill-rule:nonzero;"/>
        <path d="M48.473,50.192L41.456,50.192L29.522,19.076L36.863,19.076L45.281,42.54L53.648,19.076L60.467,19.076L48.473,50.192Z" style="fill-rule:nonzero;"/>
        <path d="M89.252,36.73L68.139,36.73C68.139,40.495 70.492,45.338 77.006,45.338C81.342,45.338 84.659,43.427 85.555,42.984L87.981,47.572C87.662,47.764 83.19,50.957 76.432,50.957C66.664,50.957 61.237,43.999 61.237,34.821C61.237,25.07 67.176,18.18 75.977,18.18C84.466,18.18 89.38,24.301 89.38,34.248C89.382,35.267 89.252,36.225 89.252,36.73ZM76.107,23.537C71.769,23.537 68.705,26.786 68.139,31.507L82.739,31.507C82.739,28.827 81.664,23.537 76.107,23.537Z" style="fill-rule:nonzero;"/>
        <path d="M114.084,50.194L114.084,33.166C114.084,29.146 114.022,26.915 112.619,25.512C112.043,24.94 110.704,24.17 108.724,24.17C105.213,24.17 102.215,26.152 101.77,26.468L101.77,50.192L94.749,50.192L94.749,19.076L100.88,19.076L100.88,21.37C101.388,20.987 105.28,18.18 110.13,18.18C113.963,18.18 116.444,19.585 117.913,21.056C121.167,24.302 121.103,28.25 121.103,32.78L121.103,50.194L114.084,50.194Z" style="fill-rule:nonzero;"/>
        <path d="M173.614,50.192L160.981,34.501L160.981,50.192L153.963,50.192L153.963,4.087L160.981,4.087L160.981,32.398L173.217,19.076L181.641,19.076L168.253,33.227L182.103,50.192L173.614,50.192Z" style="fill-rule:nonzero;"/>
        <path d="M243.254,50.192L230.62,34.502L230.62,50.193L223.602,50.193L223.602,4.087L230.62,4.087L230.62,32.398L242.6,19.076L251.023,19.076L237.886,33.227L251.736,50.192L243.254,50.192Z" style="fill-rule:nonzero;"/>
        <path d="M327.627,50.192L314.986,34.501L314.986,50.192L307.97,50.192L307.97,4.087L314.986,4.087L314.986,32.398L327.224,19.076L335.642,19.076L322.257,33.227L336.112,50.192L327.627,50.192Z" style="fill-rule:nonzero;"/>
        <path d="M388.29,50.194L388.29,33.166C388.29,29.146 388.225,26.915 386.822,25.512C386.246,24.94 384.907,24.17 382.93,24.17C379.421,24.17 376.417,26.152 375.974,26.468L375.974,50.192L368.952,50.192L368.952,19.076L375.075,19.076L375.075,21.37C375.592,20.987 379.482,18.18 384.329,18.18C388.162,18.18 390.647,19.585 392.114,21.056C395.369,24.302 395.306,28.25 395.306,32.78L395.306,50.194L388.29,50.194Z" style="fill-rule:nonzero;"/>
        <path d="M139.315,31.379C136.126,30.039 133.767,29.086 133.767,26.851C133.767,25.069 135.233,23.345 138.741,23.345C141.948,23.345 145.04,24.935 145.796,25.359L148.101,20.791C147.15,20.152 143.836,18.18 138.296,18.18C131.47,18.18 126.747,21.878 126.747,27.485C126.747,33.166 131.533,35.199 134.98,36.668C139.189,38.456 141.68,39.285 141.68,41.707C141.68,43.877 139.827,45.532 136.258,45.532C132.045,45.532 128.724,43.428 128.09,43.111L125.598,47.702C125.983,48.022 130.318,51.015 136.955,51.015C143.85,51.015 148.827,47.381 148.827,41.263C148.827,35.139 143.657,33.166 139.315,31.379Z" style="fill-rule:nonzero;"/>
        <path d="M17.412,24.811C11.923,22.451 9.562,21.431 9.562,18.179C9.562,14.991 12.562,12.762 16.838,12.762C21.07,12.762 24.281,14.993 25.24,15.732L28.512,10.828C27.187,9.715 22.982,6.702 16.329,6.702C8.097,6.702 2.353,11.551 2.353,18.751C2.353,26.915 9.755,29.592 13.074,31.057C17.155,32.845 21.882,34.247 21.882,38.58C21.882,42.343 19.2,44.833 14.345,44.833C9.243,44.833 5.224,41.776 4.393,41.262C4.331,41.219 4.197,41.124 4.197,41.124L1,46.284C1,46.284 1.101,46.389 1.155,46.44C1.885,47.149 7.005,51.142 14.728,51.142C23.918,51.142 29.343,45.725 29.343,38.009C29.344,30.296 23.472,27.425 17.412,24.811Z" style="fill-rule:nonzero;"/>
        <path d="M359.989,21.432C357.754,19.202 354.943,18.116 350.287,18.116C344.072,18.116 340.205,20.496 339.13,21.296L341.361,25.983C342.012,25.617 345.651,23.602 349.712,23.602C352.592,23.602 353.862,24.111 354.757,25.003C355.591,25.829 355.775,26.915 355.775,28.89L355.775,30.104L354.627,30.104C350.288,30.104 337.082,30.362 337.082,41.005C337.082,46.807 340.976,50.823 347.098,50.823C352.199,50.823 355.84,48.208 356.286,47.887L356.286,50.192L362.408,50.192L362.408,31.057C362.407,26.915 362.407,23.856 359.989,21.432ZM355.774,43.3C355.262,43.556 352.525,45.406 348.888,45.406C345.882,45.406 343.402,43.876 343.402,40.692C343.402,39.343 343.778,38.328 344.608,37.498C346.4,35.712 349.907,35.07 354.306,35.07L355.775,35.07L355.775,43.3L355.774,43.3Z" style="fill-rule:nonzero;"/>
        <path d="M205.979,21.432C203.742,19.202 200.937,18.116 196.279,18.116C190.063,18.116 186.19,20.496 185.113,21.296L187.348,25.983C188.001,25.611 191.643,23.602 195.707,23.602C198.578,23.602 199.851,24.111 200.746,25.003C201.581,25.829 201.763,26.915 201.763,28.89L201.763,30.104L200.62,30.104C196.279,30.104 183.067,30.362 183.067,41.005C183.067,46.807 186.956,50.823 193.092,50.823C198.194,50.823 201.832,48.208 202.281,47.887L202.281,50.192L208.402,50.192L208.402,31.057C208.403,26.915 208.403,23.856 205.979,21.432ZM201.764,43.3C201.26,43.556 198.514,45.406 194.877,45.406C191.876,45.406 189.388,43.876 189.388,40.692C189.388,39.343 189.773,38.328 190.599,37.498C192.384,35.712 195.897,35.07 200.3,35.07L201.763,35.07L201.763,43.3L201.764,43.3Z" style="fill-rule:nonzero;"/>
        <path d="M304.915,18.656C304.379,18.452 303.455,18.179 302,18.179C295.738,18.179 292.106,22.583 291.846,23.03L291.846,19.075L285.73,19.075L285.73,50.192L292.738,50.192L292.738,28.89C293.441,27.872 296.063,24.11 301.738,24.11C302.403,24.11 303.4,24.224 303.776,24.288L304.915,18.656Z" style="fill-rule:nonzero;"/>
        <path d="M409.627,1L409.627,27.691C409.627,38.258 412.561,44.246 417.569,49.243C422.588,54.252 429.673,56.984 437.318,56.984C444.963,56.984 452.049,54.251 457.054,49.243C462.068,44.237 465,38.267 465,27.691L465,1L409.627,1Z" style="fill:rgb(255,210,0);fill-rule:nonzero;"/>
        <path d="M465,19.441L446.547,19.441L446.547,1L428.091,1L428.091,19.441L409.627,19.441L409.627,27.692C409.627,31.669 410.043,34.997 410.829,37.869L428.091,37.869L428.091,55.565C430.994,56.497 434.106,56.985 437.318,56.985C440.531,56.985 443.644,56.496 446.547,55.564L446.547,37.868L463.799,37.868C464.584,34.998 465,31.671 465,27.691L465,19.441Z" style="fill:rgb(205,0,20);fill-rule:nonzero;"/>
        <path d="M448.252,25.826C447.252,24.393 445.307,24.379 444.305,25.761C446.398,26.586 446.58,28.642 445.661,30.261C445.661,30.261 444.646,29.466 441.583,29.31C440.003,29.227 439.314,29.227 439.314,29.227C439.104,26.465 440.927,25.275 442.728,25.381C442.568,23.579 440.238,23.243 439.262,23.842C440.037,21.793 437.318,19.978 437.318,19.978C437.318,19.978 434.586,21.793 435.372,23.842C434.396,23.242 432.063,23.579 431.903,25.381C433.695,25.275 435.527,26.465 435.325,29.227C435.325,29.227 434.626,29.227 433.046,29.31C429.987,29.466 428.97,30.261 428.97,30.261C428.052,28.643 428.23,26.586 430.33,25.761C429.332,24.379 427.372,24.393 426.384,25.826C425.425,23.722 422.468,24.274 422.468,24.274C424.643,27.089 426.957,30.944 428.6,34.441C429.246,34.062 430.839,33.336 433.175,33.175C435.503,33.023 437.318,33.032 437.318,33.032C437.318,33.032 439.158,33.023 441.456,33.175C443.785,33.336 445.391,34.062 446.019,34.441C447.676,30.944 449.985,27.09 452.167,24.274C452.167,24.273 449.204,23.722 448.252,25.826Z" style="fill:rgb(255,210,0);fill-rule:nonzero;"/>
    </g>
</svg>
